<?xml version="1.0" encoding="UTF-8" standalone="no"?>
<svg
   xmlns:dc="http://purl.org/dc/elements/1.1/"
   xmlns:cc="http://creativecommons.org/ns#"
   xmlns:rdf="http://www.w3.org/1999/02/22-rdf-syntax-ns#"
   xmlns:svg="http://www.w3.org/2000/svg"
   xmlns="http://www.w3.org/2000/svg"
   viewBox="0 0 250 250"
   height="250"
   width="250"
   xml:space="preserve"
   id="svg3786"
   version="1.1"><metadata
     id="metadata3792"><rdf:RDF><cc:Work
         rdf:about=""><dc:format>image/svg+xml</dc:format><dc:type
           rdf:resource="http://purl.org/dc/dcmitype/StillImage" /><dc:title></dc:title></cc:Work></rdf:RDF></metadata><defs
     id="defs3790"><clipPath
       id="clipPath3804"
       clipPathUnits="userSpaceOnUse"><path
         id="path3802"
         d="M 0,1500 H 1500 V 0 H 0 Z" /></clipPath><clipPath
       id="clipPath4910"
       clipPathUnits="userSpaceOnUse"><rect
         transform="scale(1,-1)"
         ry="0.075000003"
         style="opacity:0.8;fill:#e6e6e6;stroke-width:0.75"
         y="-675.81384"
         x="494.26126"
         height="187.5"
         width="187.5"
         id="rect4912" /></clipPath></defs><g
     transform="matrix(1.3333333,0,0,-1.3333333,-659.015,901.0851)"
     id="g3794"><path
       id="path3796"
       style="fill:#ffffff;fill-opacity:0;fill-rule:nonzero;stroke:none"
       d="M 0,0 H 1500 V 1500 H 0 Z" /><g
       clip-path="url(#clipPath4910)"
       id="g3798"><g
         clip-path="url(#clipPath3804)"
         id="g3800"><g
           transform="translate(686.3538,1295.3562)"
           id="g3806"><path
             id="path3808"
             style="fill:#4d4d4d;fill-opacity:1;fill-rule:nonzero;stroke:none"
             d="m 0,0 -47.365,-38.538 v 24.427 L 0,4.985 Z m -138.373,11.669 v 6.741 l 30.816,10.448 32.288,-10.488 v -6.701 z m -47.662,-48.366 c -4.839,2.749 -8.317,7.219 -9.795,12.584 -1.477,5.366 -0.777,10.986 1.973,15.824 3.696,6.505 10.646,10.546 18.138,10.546 3.582,0 7.133,-0.942 10.271,-2.725 l 1.461,-0.83 c -1.466,-3.021 -2.29,-6.41 -2.29,-9.988 V -47.925 Z M 6.527,14.655 C 5.375,15.433 3.911,15.587 2.62,15.067 L -48.134,-5.396 c -2.322,8.738 -9.679,15.445 -18.765,16.809 v 9.997 c 0,1.814 -1.167,3.421 -2.892,3.981 l -36.501,11.857 c -0.858,0.279 -1.783,0.273 -2.637,-0.017 l -34.973,-11.857 c -1.698,-0.576 -2.841,-2.17 -2.841,-3.964 v -9.997 c -4.691,-0.704 -8.918,-2.835 -12.233,-5.931 l -2.337,1.328 c -4.395,2.497 -9.377,3.817 -14.406,3.817 -10.496,0 -20.235,-5.663 -25.416,-14.78 -3.854,-6.783 -4.836,-14.661 -2.765,-22.182 2.071,-7.521 6.946,-13.786 13.729,-17.64 l 23.894,-13.577 v -9.997 c 0,-2.311 1.873,-4.185 4.185,-4.185 h 16.819 c 2.312,0 4.185,1.874 4.185,4.185 0,2.312 -1.873,4.185 -4.185,4.185 h -12.634 v 52.078 c 0,8.042 6.543,14.584 14.585,14.584 h 73.002 c 8.042,0 14.585,-6.542 14.585,-14.584 v -52.078 h -12.634 c -2.311,0 -4.185,-1.873 -4.185,-4.185 0,-2.311 1.874,-4.185 4.185,-4.185 h 16.819 c 2.312,0 4.185,1.874 4.185,4.185 v 18.22 L 6.827,-5.237 c 0.976,0.795 1.544,1.987 1.544,3.247 v 13.176 c 0,1.391 -0.691,2.69 -1.844,3.469" /></g><g
           transform="translate(579.5328,1159.9083)"
           id="g3810"><path
             id="path3812"
             style="fill:#4d4d4d;fill-opacity:1;fill-rule:nonzero;stroke:none"
             d="m 0,0 c -16.704,0 -30.294,13.59 -30.294,30.294 0,12.89 19.641,38.272 30.294,50.594 C 10.653,68.566 30.294,43.184 30.294,30.294 30.294,13.59 16.704,0 0,0 m 0,91.387 c -1.178,0 -2.302,-0.496 -3.094,-1.367 C -6.735,86.021 -38.664,50.377 -38.664,30.294 -38.664,8.974 -21.32,-8.37 0,-8.37 21.32,-8.37 38.664,8.974 38.664,30.294 38.664,50.377 6.735,86.021 3.094,90.02 2.302,90.891 1.178,91.387 0,91.387" /></g><g
           transform="translate(567.84,1190.1447)"
           id="g3814"><path
             id="path3816"
             style="fill:#4d4d4d;fill-opacity:1;fill-rule:nonzero;stroke:none"
             d="m 0,0 c -0.011,2.305 -1.883,4.165 -4.185,4.165 h -0.02 C -6.517,4.154 -8.382,2.271 -8.371,-0.04 c 0.053,-11.009 9.053,-19.966 20.064,-19.966 2.311,0 4.185,1.874 4.185,4.185 0,2.312 -1.874,4.185 -4.185,4.185 C 5.276,-11.636 0.031,-6.416 0,0" /></g><path
           id="path3818"
           style="fill:#4d4d4d;fill-opacity:1;fill-rule:nonzero;stroke:none"
           d="m 974.181,1331.368 h 17.671 v -39.012 h -17.671 z m -35.902,-45.719 -12.262,-19.35 H 912.6 l -12.262,19.35 v 35.977 h 37.941 z m -10.135,-113.164 c 0,-4.871 -3.964,-8.835 -8.836,-8.835 -4.872,0 -8.836,3.964 -8.836,8.835 0,4.872 3.964,8.836 8.836,8.836 4.872,0 8.836,-3.964 8.836,-8.836 m 46.037,19.507 h 17.671 v -39.013 h -17.671 z m -109.746,-39.013 h -17.671 v 39.013 h 17.671 z m 0,139.377 h -17.671 v 39.012 h 17.671 z m 105.561,-8.371 h 26.042 c 2.311,0 4.185,1.874 4.185,4.186 v 47.382 c 0,2.312 -1.874,4.186 -4.185,4.186 h -26.042 c -2.311,0 -4.185,-1.874 -4.185,-4.186 v -19.506 h -19.162 v 9.765 c 0,2.311 -1.873,4.185 -4.185,4.185 h -46.311 c -2.312,0 -4.185,-1.874 -4.185,-4.185 v -9.765 h -19.163 v 19.506 c 0,2.312 -1.873,4.186 -4.185,4.186 h -26.042 c -2.311,0 -4.185,-1.874 -4.185,-4.186 v -47.382 c 0,-2.312 1.874,-4.186 4.185,-4.186 h 26.042 c 2.312,0 4.185,1.874 4.185,4.186 v 19.506 h 19.163 v -23.242 c 0,-0.794 0.225,-1.57 0.65,-2.24 l 14.144,-22.322 c 0.768,-1.211 2.101,-1.945 3.535,-1.945 h 4.826 v -68.773 c -6.125,-1.539 -10.945,-6.359 -12.485,-12.484 h -29.833 v 19.506 c 0,2.311 -1.873,4.185 -4.185,4.185 h -26.042 c -2.311,0 -4.185,-1.874 -4.185,-4.185 v -47.384 c 0,-2.311 1.874,-4.185 4.185,-4.185 h 26.042 c 2.312,0 4.185,1.874 4.185,4.185 v 19.507 h 29.833 c 1.877,-7.468 8.628,-13.021 16.67,-13.021 8.042,0 14.793,5.553 16.67,13.021 h 29.833 v -19.507 c 0,-2.311 1.874,-4.185 4.185,-4.185 h 26.042 c 2.311,0 4.185,1.874 4.185,4.185 v 47.384 c 0,2.311 -1.874,4.185 -4.185,4.185 h -26.042 c -2.311,0 -4.185,-1.874 -4.185,-4.185 v -19.506 h -29.833 c -1.54,6.125 -6.36,10.945 -12.485,12.484 v 68.773 h 4.827 c 1.434,0 2.767,0.734 3.535,1.945 l 14.144,22.322 c 0.425,0.67 0.65,1.446 0.65,2.24 v 23.242 h 19.162 v -19.506 c 0,-2.312 1.874,-4.186 4.185,-4.186" /><g
           transform="translate(1218.7732,1157.6349)"
           id="g3820"><path
             id="path3822"
             style="fill:#4d4d4d;fill-opacity:1;fill-rule:nonzero;stroke:none"
             d="m 0,0 c -3.589,0 -6.51,-2.921 -6.51,-6.51 0,-3.59 2.921,-6.511 6.51,-6.511 3.589,0 6.51,2.921 6.51,6.511 C 6.51,-2.921 3.589,0 0,0" /></g><g
           transform="translate(1247.4414,1157.6349)"
           id="g3824"><path
             id="path3826"
             style="fill:#4d4d4d;fill-opacity:1;fill-rule:nonzero;stroke:none"
             d="m 0,0 c -3.589,0 -6.51,-2.921 -6.51,-6.51 0,-3.59 2.921,-6.511 6.51,-6.511 3.589,0 6.51,2.921 6.51,6.511 C 6.51,-2.921 3.589,0 0,0" /></g><g
           transform="translate(1276.1096,1157.6349)"
           id="g3828"><path
             id="path3830"
             style="fill:#4d4d4d;fill-opacity:1;fill-rule:nonzero;stroke:none"
             d="m 0,0 c -3.589,0 -6.51,-2.921 -6.51,-6.51 0,-3.59 2.921,-6.511 6.51,-6.511 3.589,0 6.51,2.921 6.51,6.511 C 6.51,-2.921 3.589,0 0,0" /></g><g
           transform="translate(1330.8702,1186.8594)"
           id="g3832"><path
             id="path3834"
             style="fill:#4d4d4d;fill-opacity:1;fill-rule:nonzero;stroke:none"
             d="m 0,0 c -1.328,-2.3 -4.584,-3.619 -8.934,-3.619 h -128.841 l 12.843,22.244 H -6.575 L -1.333,9.546 C 0.842,5.779 1.328,2.3 0,0 m -166.858,0 c -1.328,2.3 -0.842,5.779 1.334,9.546 l 64.42,111.579 12.842,-22.243 -59.179,-102.501 h -10.483 c -4.35,0 -7.606,1.319 -8.934,3.619 M -46.759,26.996 H -120.1 l 36.671,63.515 z m -44.27,111.58 c 2.174,3.767 4.944,5.927 7.6,5.927 2.656,0 5.426,-2.16 7.601,-5.927 l 64.42,-111.58 h -25.685 l -59.178,102.5 z M 5.917,13.732 -68.579,142.761 c -3.765,6.521 -9.039,10.112 -14.85,10.112 -5.811,0 -11.085,-3.591 -14.85,-10.112 L -172.774,13.732 c -3.765,-6.522 -4.238,-12.885 -1.333,-17.917 2.906,-5.032 8.653,-7.804 16.183,-7.804 h 148.99 c 7.531,0 13.277,2.772 16.183,7.804 2.905,5.032 2.432,11.395 -1.332,17.917" /></g><path
           id="path3836"
           style="fill:#4d4d4d;fill-opacity:1;fill-rule:nonzero;stroke:none"
           d="m 1233.232,828.353 h -69.96 v 17.671 h 69.96 z m -60.021,99.377 c 0,3.846 3.129,6.975 6.976,6.975 h 36.129 c 3.847,0 6.976,-3.129 6.976,-6.975 v -73.336 h -31.479 v 40.156 c 0,2.312 -1.874,4.185 -4.186,4.185 -2.311,0 -4.185,-1.873 -4.185,-4.185 v -40.156 h -10.231 z m 64.206,-73.336 h -5.755 v 73.336 c 0,8.462 -6.884,15.346 -15.346,15.346 h -36.129 c -8.462,0 -15.346,-6.884 -15.346,-15.346 v -73.336 h -5.755 c -2.311,0 -4.185,-1.874 -4.185,-4.185 v -26.042 c 0,-2.311 1.874,-4.185 4.185,-4.185 h 78.331 c 2.311,0 4.185,1.874 4.185,4.185 v 26.042 c 0,2.311 -1.874,4.185 -4.185,4.185" /><g
           transform="translate(1178.1431,996.6927)"
           id="g3838"><path
             id="path3840"
             style="fill:#4d4d4d;fill-opacity:1;fill-rule:nonzero;stroke:none"
             d="m 0,0 h 15.923 v -39.201 c 0,-2.311 1.874,-4.185 4.185,-4.185 2.312,0 4.185,1.874 4.185,4.185 V 0 h 15.924 c 2.311,0 4.185,1.874 4.185,4.185 0,2.312 -1.874,4.185 -4.185,4.185 H 0 C -2.311,8.37 -4.185,6.497 -4.185,4.185 -4.185,1.874 -2.311,0 0,0" /></g><g
           transform="translate(1310.9631,891.0405)"
           id="g3842"><path
             id="path3844"
             style="fill:#4d4d4d;fill-opacity:1;fill-rule:nonzero;stroke:none"
             d="m 0,0 h -30.112 c -11.385,0 -20.648,9.263 -20.648,20.648 0,11.386 9.263,20.649 20.648,20.649 h 54.945 c 2.312,0 4.186,1.874 4.186,4.185 0,2.312 -1.874,4.186 -4.186,4.186 h -54.945 c -16,0 -29.018,-13.018 -29.018,-29.02 0,-16.001 13.018,-29.019 29.018,-29.019 H 0 c 11.386,0 20.648,-9.262 20.648,-20.648 0,-11.385 -9.262,-20.648 -20.648,-20.648 h -54.945 c -2.312,0 -4.185,-1.874 -4.185,-4.185 0,-2.312 1.873,-4.186 4.185,-4.186 H 0 c 16.001,0 29.019,13.018 29.019,29.019 C 29.019,-13.018 16.001,0 0,0" /></g><g
           transform="translate(987.0459,854.0172)"
           id="g3846"><path
             id="path3848"
             style="fill:#4d4d4d;fill-opacity:1;fill-rule:nonzero;stroke:none"
             d="m 0,0 h -12.957 c 0.208,1.628 0.328,3.284 0.328,4.968 0,21.507 -17.497,39.003 -39.004,39.003 -21.506,0 -39.003,-17.496 -39.003,-39.003 0,-1.684 0.119,-3.34 0.327,-4.968 h -61.599 v 17.671 h 33.651 c 2.312,0 4.185,1.874 4.185,4.185 0,2.312 -1.873,4.186 -4.185,4.186 h -33.651 v 48.551 h 49.67 c 0.762,0 1.509,0.208 2.161,0.601 L -78.457,88.23 0.345,63.813 12.05,48.792 H -7.975 c -2.311,0 -4.185,-1.874 -4.185,-4.186 0,-2.311 1.874,-4.185 4.185,-4.185 H 16.432 V 23.189 Z m -51.633,-25.665 c -16.89,0 -30.632,13.742 -30.632,30.633 0,16.891 13.742,30.633 30.632,30.633 16.891,0 30.633,-13.742 30.633,-30.633 0,-16.891 -13.742,-30.633 -30.633,-30.633 m -77.176,168.34 c 8.139,0 13.211,-7.349 13.249,-7.405 0.04,-0.059 0.081,-0.118 0.122,-0.175 l 30.332,-41.101 -18.296,-11.031 h -48.506 v 59.712 z M 23.919,47.179 6.141,69.994 c -0.526,0.675 -1.246,1.173 -2.063,1.425 l -80.537,24.954 -32.197,43.629 c -0.85,1.234 -7.994,11.044 -20.153,11.044 h -27.284 c -2.312,0 -4.185,-1.874 -4.185,-4.185 V -4.185 c 0,-2.312 1.873,-4.185 4.185,-4.185 h 67.808 c 5.46,-14.958 19.829,-25.665 36.652,-25.665 16.824,0 31.193,10.707 36.653,25.665 H 2.163 c 1.357,0 2.631,0.658 3.415,1.765 l 18.455,26.041 c 0.501,0.708 0.77,1.553 0.77,2.42 v 22.75 c 0,0.932 -0.311,1.838 -0.884,2.573" /></g><g
           transform="translate(935.4133,848.8139)"
           id="g3850"><path
             id="path3852"
             style="fill:#4d4d4d;fill-opacity:1;fill-rule:nonzero;stroke:none"
             d="m 0,0 c -5.609,0 -10.172,4.563 -10.172,10.172 0,5.608 4.563,10.172 10.172,10.172 5.609,0 10.171,-4.564 10.171,-10.172 C 10.171,4.563 5.609,0 0,0 m 0,28.714 c -10.224,0 -18.543,-8.318 -18.543,-18.542 0,-10.225 8.319,-18.542 18.543,-18.542 10.223,0 18.541,8.317 18.541,18.542 0,10.224 -8.318,18.542 -18.541,18.542" /></g><g
           transform="translate(676.414,982.3649)"
           id="g3854"><path
             id="path3856"
             style="fill:#4d4d4d;fill-opacity:1;fill-rule:nonzero;stroke:none"
             d="m 0,0 h -16.076 c -1.265,0 -2.463,0.573 -3.257,1.558 l -10.301,12.77 H -147.077 L -157.378,1.558 C -158.172,0.573 -159.37,0 -160.635,0 h -16.076 c -2.311,0 -4.185,1.874 -4.185,4.185 0,2.312 1.874,4.185 4.185,4.185 h 14.074 l 10.301,12.771 c 0.795,0.984 1.992,1.557 3.258,1.557 h 121.446 c 1.265,0 2.463,-0.573 3.257,-1.557 L -14.074,8.37 H 0 C 2.311,8.37 4.185,6.497 4.185,4.185 4.185,1.874 2.311,0 0,0" /></g><g
           transform="translate(551.8878,953.8456)"
           id="g3858"><path
             id="path3860"
             style="fill:#4d4d4d;fill-opacity:1;fill-rule:nonzero;stroke:none"
             d="m 0,0 c -1.071,0 -2.142,0.409 -2.96,1.226 -1.634,1.634 -1.634,4.284 0,5.919 21.578,21.576 56.684,21.576 78.261,0 1.634,-1.635 1.634,-4.285 0,-5.919 -1.635,-1.634 -4.284,-1.634 -5.919,0 C 51.069,19.538 21.272,19.538 2.96,1.226 2.142,0.409 1.071,0 0,0" /></g><g
           transform="translate(608.4459,938.0614)"
           id="g3862"><path
             id="path3864"
             style="fill:#4d4d4d;fill-opacity:1;fill-rule:nonzero;stroke:none"
             d="m 0,0 c -1.071,0 -2.142,0.409 -2.959,1.226 -9.61,9.61 -25.247,9.61 -34.856,0 -1.635,-1.634 -4.284,-1.634 -5.919,0 -1.634,1.634 -1.634,4.284 0,5.919 6.236,6.236 14.528,9.67 23.347,9.67 8.819,0 17.11,-3.434 23.347,-9.67 C 4.594,5.51 4.594,2.86 2.96,1.226 2.142,0.409 1.071,0 0,0" /></g><g
           transform="translate(635.9693,828.3526)"
           id="g3866"><path
             id="path3868"
             style="fill:#4d4d4d;fill-opacity:1;fill-rule:nonzero;stroke:none"
             d="m 0,0 h 14.461 v 69.917 c -18.655,11.811 -40.17,18.041 -62.371,18.041 -22.201,0 -43.716,-6.231 -62.372,-18.041 V 0 h 14.462 c 15.213,6.314 31.328,9.515 47.91,9.515 C -31.328,9.515 -15.213,6.314 0,0 M 18.646,-8.37 H -0.841 c -0.56,0 -1.115,0.112 -1.631,0.33 -14.408,6.095 -29.695,9.184 -45.438,9.184 -15.743,0 -31.031,-3.089 -45.438,-9.184 -0.516,-0.218 -1.071,-0.33 -1.631,-0.33 h -19.489 c -2.311,0 -4.185,1.873 -4.185,4.185 v 76.38 c 0,1.406 0.706,2.718 1.88,3.492 20.455,13.504 44.268,20.642 68.863,20.642 24.595,0 48.407,-7.138 68.862,-20.641 1.174,-0.775 1.88,-2.087 1.88,-3.493 v -76.38 c 0,-2.312 -1.874,-4.185 -4.186,-4.185" /></g><g
           transform="translate(540.1064,882.0796)"
           id="g3870"><path
             id="path3872"
             style="fill:#4d4d4d;fill-opacity:1;fill-rule:nonzero;stroke:none"
             d="m 0,0 c -1.498,0 -2.947,0.807 -3.699,2.222 -1.085,2.041 -0.31,4.575 1.731,5.66 6.317,3.357 13.031,6.086 19.954,8.111 2.22,0.649 4.543,-0.623 5.192,-2.841 C 23.827,10.933 22.555,8.609 20.336,7.96 13.958,6.094 7.776,3.58 1.96,0.491 1.335,0.158 0.662,0 0,0" /></g><g
           transform="translate(636.0111,882.0801)"
           id="g3874"><path
             id="path3876"
             style="fill:#4d4d4d;fill-opacity:1;fill-rule:nonzero;stroke:none"
             d="m 0,0 c -0.663,0 -1.335,0.158 -1.961,0.491 -5.813,3.089 -11.995,5.602 -18.375,7.469 -2.219,0.649 -3.491,2.973 -2.842,5.192 0.649,2.219 2.974,3.491 5.192,2.841 C -11.061,13.967 -4.347,11.238 1.968,7.882 4.009,6.797 4.784,4.263 3.699,2.222 2.947,0.807 1.498,0 0,0" /></g><g
           transform="translate(1333.4716,604.4218)"
           id="g3878"><path
             id="path3880"
             style="fill:#4d4d4d;fill-opacity:1;fill-rule:nonzero;stroke:none"
             d="M 0,0 C 3.589,0 6.51,2.921 6.51,6.51 6.51,10.1 3.589,13.021 0,13.021 -3.589,13.021 -6.51,10.1 -6.51,6.51 -6.51,2.921 -3.589,0 0,0" /></g><g
           transform="translate(1333.4716,588.7744)"
           id="g3882"><path
             id="path3884"
             style="fill:#4d4d4d;fill-opacity:1;fill-rule:nonzero;stroke:none"
             d="m 0,0 c -3.589,0 -6.51,-2.921 -6.51,-6.51 0,-3.59 2.921,-6.511 6.51,-6.511 3.589,0 6.51,2.921 6.51,6.511 C 6.51,-2.921 3.589,0 0,0" /></g><g
           transform="translate(1333.4716,560.1061)"
           id="g3886"><path
             id="path3888"
             style="fill:#4d4d4d;fill-opacity:1;fill-rule:nonzero;stroke:none"
             d="m 0,0 c -3.589,0 -6.51,-2.921 -6.51,-6.51 0,-3.59 2.921,-6.511 6.51,-6.511 3.589,0 6.51,2.921 6.51,6.511 C 6.51,-2.921 3.589,0 0,0" /></g><g
           transform="translate(1259.3105,498.094)"
           id="g3890"><path
             id="path3892"
             style="fill:#4d4d4d;fill-opacity:1;fill-rule:nonzero;stroke:none"
             d="m 0,0 c -2.469,0 -4.987,1.112 -7.46,3.186 -0.401,0.375 -1.034,0.968 -1.854,1.736 -10.694,11.204 -20.054,40.675 -20.054,79.248 0,38.573 9.36,68.044 20.054,79.248 0.82,0.768 1.453,1.361 1.854,1.736 2.473,2.074 4.991,3.186 7.46,3.186 13.891,0 29.368,-34.567 29.368,-84.17 C 29.368,34.567 13.891,0 0,0 m -67.859,84.17 c 0,22.788 7.166,31.727 13.409,36.969 0.031,0.026 13.285,12.441 25.782,24.148 -5.858,-16.78 -9.07,-38.328 -9.07,-61.117 0,-22.789 3.212,-44.337 9.07,-61.118 -12.497,11.708 -25.751,24.123 -25.782,24.149 -6.243,5.242 -13.409,14.181 -13.409,36.969 m -28.18,0 c 0,22.684 7.08,35.058 10.717,35.058 h 17.93 c -5.988,-8.733 -8.837,-20.143 -8.837,-35.058 0,-14.915 2.849,-26.325 8.837,-35.059 h -17.93 c -3.637,0 -10.717,12.374 -10.717,35.059 M 0,176.711 c -4.242,0 -8.327,-1.566 -12.15,-4.57 -0.182,-0.123 -2.369,-2.047 -3.164,-2.873 l -44.474,-41.669 -25.534,-0.001 c -12.531,0 -19.088,-21.847 -19.088,-43.428 0,-21.582 6.557,-43.429 19.088,-43.429 h 25.534 l 44.474,-41.669 c 0.795,-0.826 3.057,-2.825 3.285,-2.968 C -8.24,-6.838 -4.197,-8.37 0,-8.37 c 10.825,0 20.64,10.148 27.638,28.578 6.513,17.15 10.1,39.866 10.1,63.962 0,24.096 -3.587,46.812 -10.1,63.962 C 20.64,166.562 10.825,176.711 0,176.711" /></g><g
           transform="translate(1256.6793,602.1457)"
           id="g3894"><path
             id="path3896"
             style="fill:#4d4d4d;fill-opacity:1;fill-rule:nonzero;stroke:none"
             d="m 0,0 c -1.635,-1.634 -1.635,-4.284 0,-5.918 7.699,-7.699 7.699,-20.228 0,-27.927 -1.635,-1.634 -1.635,-4.285 0,-5.918 0.817,-0.818 1.888,-1.227 2.959,-1.227 1.071,0 2.143,0.409 2.959,1.227 10.964,10.962 10.964,28.8 0,39.763 C 4.285,1.635 1.633,1.635 0,0" /></g><g
           transform="translate(1003.4781,505.0694)"
           id="g3898"><path
             id="path3900"
             style="fill:#4d4d4d;fill-opacity:1;fill-rule:nonzero;stroke:none"
             d="m 0,0 c 0,-3.846 -3.129,-6.975 -6.975,-6.975 h -9.578 V 25.32 c 0,2.311 -1.874,4.185 -4.185,4.185 -2.312,0 -4.185,-1.874 -4.185,-4.185 V -6.975 H -42.594 V 25.32 c 0,2.311 -1.874,4.185 -4.186,4.185 -2.311,0 -4.185,-1.874 -4.185,-4.185 V -6.975 h -9.579 c -3.846,0 -6.975,3.129 -6.975,6.975 v 134.858 c 0,3.847 3.129,6.975 6.975,6.975 h 53.569 c 3.846,0 6.975,-3.128 6.975,-6.975 z m -6.975,150.204 h -53.569 c -8.461,0 -15.346,-6.885 -15.346,-15.346 v -25.071 h -10.694 c -1.553,0 -2.978,-0.86 -3.702,-2.233 L -101.41,86.458 h -15.056 l -4.931,15.28 c -0.709,2.2 -3.07,3.408 -5.268,2.698 -2.2,-0.709 -3.408,-3.068 -2.697,-5.268 l 4.101,-12.71 h -47.264 c -2.312,0 -4.186,-1.874 -4.186,-4.185 0,-2.312 1.874,-4.186 4.186,-4.186 h 73.64 c 1.553,0 2.979,0.861 3.702,2.234 l 11.124,21.096 h 8.169 V 33.441 h -8.169 l -11.124,21.096 c -0.723,1.374 -2.149,2.234 -3.702,2.234 h -73.64 c -2.312,0 -4.186,-1.874 -4.186,-4.186 0,-2.311 1.874,-4.185 4.186,-4.185 h 71.115 l 11.124,-21.096 c 0.724,-1.373 2.149,-2.233 3.702,-2.233 H -75.89 V 0 c 0,-8.461 6.885,-15.346 15.346,-15.346 H -6.975 C 1.486,-15.346 8.37,-8.461 8.37,0 v 134.858 c 0,8.461 -6.884,15.346 -15.345,15.346" /></g><g
           transform="translate(843.4623,656.6148)"
           id="g3902"><path
             id="path3904"
             style="fill:#4d4d4d;fill-opacity:1;fill-rule:nonzero;stroke:none"
             d="m 0,0 c 0.426,0 0.859,0.065 1.286,0.203 l 30.426,9.819 c 2.199,0.709 3.408,3.068 2.697,5.268 -0.708,2.2 -3.069,3.407 -5.268,2.697 L -1.284,8.169 C -3.484,7.459 -4.692,5.101 -3.982,2.901 -3.411,1.128 -1.768,0 0,0" /></g><g
           transform="translate(846.336,638.2726)"
           id="g3906"><path
             id="path3908"
             style="fill:#4d4d4d;fill-opacity:1;fill-rule:nonzero;stroke:none"
             d="m 0,0 c 0.571,-1.773 2.214,-2.901 3.982,-2.901 0.426,0 0.859,0.065 1.286,0.203 l 30.426,9.819 c 2.199,0.709 3.407,3.068 2.697,5.268 -0.708,2.2 -3.071,3.408 -5.268,2.697 L 2.698,5.268 C 0.498,4.559 -0.71,2.2 0,0" /></g><g
           transform="translate(853.1906,617.0302)"
           id="g3910"><path
             id="path3912"
             style="fill:#4d4d4d;fill-opacity:1;fill-rule:nonzero;stroke:none"
             d="m 0,0 c 0.571,-1.773 2.214,-2.901 3.982,-2.901 0.426,0 0.859,0.065 1.286,0.203 l 30.426,9.819 c 2.199,0.709 3.407,3.068 2.697,5.268 -0.709,2.2 -3.069,3.409 -5.268,2.697 L 2.698,5.268 C 0.498,4.559 -0.71,2.2 0,0" /></g><g
           transform="translate(1329.5687,314.7745)"
           id="g3914"><path
             id="path3916"
             style="fill:#4d4d4d;fill-opacity:1;fill-rule:nonzero;stroke:none"
             d="m 0,0 -22.966,-22.966 -9.865,9.865 22.966,22.967 c 1.317,1.316 3.069,2.042 4.932,2.042 1.863,0 3.615,-0.726 4.933,-2.042 C 2.719,7.145 2.719,2.72 0,0 m -133.454,-119.922 v 14.692 c 0,8.102 6.591,14.693 14.692,14.693 8.102,0 14.693,-6.591 14.693,-14.693 v -14.692 z m 62.228,-26.041 h -95.072 v 17.671 h 95.072 z m 32.476,126.944 9.865,-9.865 -68.274,-68.275 c -1.693,4.517 -4.762,8.367 -8.696,11.033 z m -99.006,12.465 h 10.276 c 2.311,0 4.185,1.874 4.185,4.185 0,2.312 -1.874,4.185 -4.185,4.185 h -10.276 V 16.09 l 6.287,6.286 h 25.416 l 6.286,-6.286 v -33.38 h -37.989 z M 5.918,15.784 c -2.898,2.899 -6.752,4.495 -10.851,4.495 -4.099,0 -7.952,-1.596 -10.851,-4.495 l -98.406,-98.407 c -1.478,0.298 -3.007,0.456 -4.572,0.456 -12.716,0 -23.062,-10.345 -23.062,-23.063 v -14.692 h -14.533 v 87.286 c 0,3.847 3.129,6.976 6.975,6.976 h 61.241 c 2.411,0 4.62,-1.23 5.909,-3.29 1.227,-1.959 3.81,-2.553 5.768,-1.327 1.96,1.226 2.554,3.809 1.328,5.768 -2.83,4.521 -7.692,7.219 -13.005,7.219 h -3.255 v 35.114 c 0,1.11 -0.442,2.174 -1.226,2.96 l -8.739,8.737 c -0.784,0.785 -1.849,1.225 -2.959,1.225 h -28.883 c -1.11,0 -2.175,-0.44 -2.959,-1.225 l -8.739,-8.737 c -0.784,-0.786 -1.226,-1.85 -1.226,-2.96 V -17.29 h -3.255 c -8.461,0 -15.346,-6.884 -15.346,-15.346 v -87.286 h -5.755 c -2.311,0 -4.185,-1.874 -4.185,-4.185 v -26.042 c 0,-2.311 1.874,-4.185 4.185,-4.185 H -67.04 c 2.311,0 4.185,1.874 4.185,4.185 v 26.042 c 0,2.311 -1.874,4.185 -4.185,4.185 h -5.755 v 10.718 c 0,2.311 -1.874,4.185 -4.185,4.185 -2.312,0 -4.185,-1.874 -4.185,-4.185 v -10.718 h -14.533 v 12.387 L 5.918,-5.918 c 5.984,5.982 5.984,15.719 0,21.702" /></g><g
           transform="translate(1324.636,209.7336)"
           id="g3918"><path
             id="path3920"
             style="fill:#4d4d4d;fill-opacity:1;fill-rule:nonzero;stroke:none"
             d="m 0,0 h -26.875 c -2.312,0 -4.186,-1.874 -4.186,-4.185 0,-2.312 1.874,-4.185 4.186,-4.185 H 0 c 2.311,0 4.185,1.873 4.185,4.185 C 4.185,-1.874 2.311,0 0,0" /></g><g
           transform="translate(1324.636,189.2724)"
           id="g3922"><path
             id="path3924"
             style="fill:#4d4d4d;fill-opacity:1;fill-rule:nonzero;stroke:none"
             d="m 0,0 h -26.875 c -2.312,0 -4.186,-1.874 -4.186,-4.185 0,-2.312 1.874,-4.185 4.186,-4.185 H 0 c 2.311,0 4.185,1.873 4.185,4.185 C 4.185,-1.874 2.311,0 0,0" /></g><g
           transform="translate(1324.636,168.8111)"
           id="g3926"><path
             id="path3928"
             style="fill:#4d4d4d;fill-opacity:1;fill-rule:nonzero;stroke:none"
             d="m 0,0 h -26.875 c -2.312,0 -4.186,-1.874 -4.186,-4.185 0,-2.312 1.874,-4.185 4.186,-4.185 H 0 c 2.311,0 4.185,1.873 4.185,4.185 C 4.185,-1.874 2.311,0 0,0" /></g><g
           transform="translate(626.7671,507.5391)"
           id="g3930"><path
             id="path3932"
             style="fill:#4d4d4d;fill-opacity:1;fill-rule:nonzero;stroke:none"
             d="m 0,0 -0.51,29.284 c 5.338,4.494 9.868,9.91 13.359,15.998 L 26.842,21.991 C 19.539,12.931 10.404,5.411 0,0 m -42.555,-9.354 14.192,25.599 c 7.029,1.241 13.633,3.717 19.583,7.202 l 0.473,-27.209 c -9.434,-3.667 -19.686,-5.683 -30.401,-5.683 -1.29,0 -2.571,0.034 -3.847,0.091 m -70.879,45.371 29.285,0.509 c 4.494,-5.337 9.91,-9.868 15.998,-13.358 L -91.442,9.175 c -9.06,7.302 -16.58,16.438 -21.992,26.842 m 36.017,113.432 0.51,-29.284 c -5.338,-4.494 -9.868,-9.909 -13.359,-15.998 l -13.993,23.292 c 7.303,9.059 16.439,16.58 26.842,21.99 m 42.555,9.354 -14.192,-25.599 c -7.029,-1.24 -13.633,-3.716 -19.583,-7.202 l -0.473,27.209 c 9.434,3.667 19.686,5.684 30.402,5.684 1.289,0 2.57,-0.034 3.846,-0.092 m 70.879,-45.37 -29.285,-0.509 c -4.494,5.337 -9.91,9.867 -15.998,13.358 l 23.292,13.993 c 9.059,-7.302 16.58,-16.438 21.991,-26.842 M 19.771,85.07 c -1.24,7.03 -3.716,13.634 -7.203,19.584 l 27.21,0.473 c 3.667,-9.435 5.684,-19.687 5.684,-30.402 0,-1.289 -0.034,-2.571 -0.092,-3.846 z M 6.643,145.605 -18.414,130.551 c -6.335,2.31 -13.17,3.574 -20.294,3.574 -0.091,0 -0.179,-0.007 -0.269,-0.007 l 13.186,23.786 c 11.792,-1.824 22.784,-6.103 32.434,-12.299 m -116.231,-25.529 15.053,-25.057 c -2.31,-6.335 -3.573,-13.169 -3.573,-20.294 0,-0.09 0.006,-0.179 0.006,-0.269 l -23.786,13.186 c 1.824,11.792 6.104,22.784 12.3,32.434 m -13.29,-45.351 c 0,1.289 0.033,2.57 0.091,3.846 l 25.599,-14.192 c 1.241,-7.029 3.717,-13.634 7.203,-19.583 l -27.21,-0.473 c -3.667,9.434 -5.683,19.686 -5.683,30.402 m 38.818,-70.88 25.056,15.054 c 6.336,-2.311 13.171,-3.574 20.296,-3.574 0.09,0 0.178,0.006 0.268,0.007 L -51.626,-8.454 C -63.418,-6.63 -74.41,-2.351 -84.06,3.845 m 45.352,19.85 c -28.138,0 -51.03,22.892 -51.03,51.03 0,28.138 22.892,51.029 51.03,51.029 28.137,0 51.029,-22.891 51.029,-51.029 0,-28.138 -22.892,-51.03 -51.029,-51.03 m 70.88,5.678 -15.054,25.057 c 2.31,6.335 3.574,13.17 3.574,20.295 0,0.09 -0.007,0.179 -0.007,0.268 L 44.471,61.807 C 42.647,50.015 38.367,39.023 32.172,29.373 m -70.88,137.892 c -51.027,0 -92.541,-41.513 -92.541,-92.54 0,-51.027 41.514,-92.541 92.541,-92.541 51.026,0 92.54,41.514 92.54,92.541 0,51.027 -41.514,92.54 -92.54,92.54" /></g><g
           transform="translate(588.0587,572.3794)"
           id="g3934"><path
             id="path3936"
             style="fill:#4d4d4d;fill-opacity:1;fill-rule:nonzero;stroke:none"
             d="m 0,0 c -5.45,0 -9.884,4.434 -9.884,9.885 0,5.45 4.434,9.884 9.884,9.884 5.45,0 9.884,-4.434 9.884,-9.884 C 9.884,4.434 5.45,0 0,0 m 0,28.14 c -10.066,0 -18.255,-8.189 -18.255,-18.255 0,-10.067 8.189,-18.255 18.255,-18.255 10.066,0 18.255,8.188 18.255,18.255 C 18.255,19.951 10.066,28.14 0,28.14" /></g><g
           transform="translate(609.6644,614.9848)"
           id="g3938"><path
             id="path3940"
             style="fill:#4d4d4d;fill-opacity:1;fill-rule:nonzero;stroke:none"
             d="m 0,0 c -1.635,1.635 -4.284,1.635 -5.919,0 -1.635,-1.634 -1.635,-4.284 0,-5.918 L 5.197,-17.034 c 0.817,-0.817 1.888,-1.226 2.959,-1.226 1.071,0 2.142,0.409 2.96,1.226 1.634,1.635 1.634,4.285 0,5.919 z" /></g><g
           transform="translate(561.2565,566.5766)"
           id="g3942"><path
             id="path3944"
             style="fill:#4d4d4d;fill-opacity:1;fill-rule:nonzero;stroke:none"
             d="m 0,0 c -1.635,1.635 -4.284,1.635 -5.919,0 -1.635,-1.634 -1.635,-4.284 0,-5.918 L 5.197,-17.034 c 0.817,-0.817 1.888,-1.226 2.959,-1.226 1.071,0 2.142,0.409 2.96,1.226 1.634,1.634 1.634,4.285 0,5.919 z" /></g><g
           transform="translate(614.861,566.5766)"
           id="g3946"><path
             id="path3948"
             style="fill:#4d4d4d;fill-opacity:1;fill-rule:nonzero;stroke:none"
             d="m 0,0 -11.116,-11.115 c -1.634,-1.634 -1.634,-4.285 0,-5.919 0.818,-0.817 1.888,-1.226 2.96,-1.226 1.071,0 2.142,0.409 2.959,1.226 L 5.919,-5.918 C 7.553,-4.284 7.553,-1.634 5.919,0 4.285,1.635 1.635,1.635 0,0" /></g><g
           transform="translate(558.2969,596.7252)"
           id="g3950"><path
             id="path3952"
             style="fill:#4d4d4d;fill-opacity:1;fill-rule:nonzero;stroke:none"
             d="m 0,0 c 1.071,0 2.142,0.409 2.96,1.226 l 11.115,11.115 c 1.635,1.634 1.635,4.285 0,5.919 -1.634,1.634 -4.283,1.634 -5.919,0 L -2.959,7.144 C -4.594,5.51 -4.594,2.86 -2.959,1.226 -2.142,0.409 -1.071,0 0,0" /></g><g
           transform="translate(570.0744,292.4108)"
           id="g3954"><path
             id="path3956"
             style="fill:#4d4d4d;fill-opacity:1;fill-rule:nonzero;stroke:none"
             d="m 0,0 1.758,14.391 c 0.439,3.588 3.86,8.166 7.177,9.604 L 55.38,44.122 c 0.934,0.404 2.087,0.618 3.336,0.618 2.759,0 5.569,-1.027 7.16,-2.617 L 99.534,8.465 c 2.39,-2.391 3.343,-7.393 1.999,-10.496 L 81.406,-48.475 c -1.438,-3.317 -6.016,-6.739 -9.606,-7.177 l -14.389,-1.759 c -0.354,-0.043 -0.739,-0.065 -1.144,-0.065 h -0.001 c -3.86,0 -8.783,1.898 -11.206,4.321 L 4.256,-12.351 C 1.567,-9.662 -0.461,-3.775 0,0 m -38.637,-121.79 c -1.168,-1.167 -2.72,-1.81 -4.371,-1.81 -1.651,0 -3.202,0.643 -4.37,1.81 l -17.001,17.001 c -2.41,2.409 -2.41,6.331 0,8.741 L 5.868,-25.801 31.61,-51.543 Z m 77.778,62.717 c 3.988,-3.988 11.03,-6.774 17.125,-6.774 h 0.001 c 0.743,0 1.47,0.043 2.159,0.127 l 14.39,1.759 c 6.515,0.796 13.661,6.137 16.27,12.158 l 20.127,46.444 c 2.709,6.254 1.058,14.925 -3.761,19.742 L 71.794,48.041 c -3.173,3.175 -8.062,5.069 -13.078,5.069 -2.384,0 -4.688,-0.452 -6.664,-1.308 L 5.608,31.676 C -0.413,29.066 -5.754,21.92 -6.55,15.406 L -8.309,1.016 C -9.081,-5.3 -6.162,-13.771 -1.662,-18.27 l 1.612,-1.612 -70.247,-70.248 c -5.674,-5.673 -5.674,-14.905 0,-20.577 l 17,-17.001 c 2.749,-2.748 6.403,-4.263 10.289,-4.263 3.887,0 7.54,1.515 10.289,4.263 l 70.248,70.247 z" /></g><g
           transform="translate(549.8711,220.7149)"
           id="g3958"><path
             id="path3960"
             style="fill:#4d4d4d;fill-opacity:1;fill-rule:nonzero;stroke:none"
             d="m 0,0 -27.529,-27.529 c -1.635,-1.634 -1.635,-4.285 0,-5.919 0.816,-0.817 1.888,-1.226 2.959,-1.226 1.071,0 2.143,0.409 2.959,1.226 L 5.918,-5.918 C 7.553,-4.284 7.553,-1.634 5.918,0 4.285,1.635 1.633,1.635 0,0" /></g><g
           transform="translate(565.811,236.6548)"
           id="g3962"><path
             id="path3964"
             style="fill:#4d4d4d;fill-opacity:1;fill-rule:nonzero;stroke:none"
             d="m 0,0 c -1.635,-1.634 -1.635,-4.284 0,-5.918 0.817,-0.818 1.888,-1.226 2.959,-1.226 1.071,0 2.143,0.408 2.959,1.226 l 9.315,9.315 c 1.635,1.634 1.635,4.284 0,5.918 -1.633,1.635 -4.285,1.635 -5.918,0 z" /></g><g
           transform="translate(622.2883,309.5842)"
           id="g3966"><path
             id="path3968"
             style="fill:#4d4d4d;fill-opacity:1;fill-rule:nonzero;stroke:none"
             d="M 0,0 C 1.143,1.143 2.663,1.772 4.279,1.772 5.896,1.772 7.415,1.143 8.558,0 L 22.37,-13.812 c 2.359,-2.36 2.359,-6.199 0,-8.558 -1.143,-1.143 -2.663,-1.773 -4.279,-1.773 -1.617,0 -3.137,0.63 -4.28,1.773 L 0,-8.559 c -1.143,1.143 -1.772,2.663 -1.772,4.279 0,1.617 0.629,3.137 1.772,4.28 m 7.893,-28.289 c 2.724,-2.724 6.346,-4.225 10.198,-4.225 3.852,0 7.474,1.501 10.198,4.225 5.623,5.623 5.623,14.771 0,20.396 L 14.477,5.919 c -2.724,2.723 -6.346,4.224 -10.198,4.224 -3.852,0 -7.473,-1.501 -10.197,-4.225 -2.725,-2.724 -4.224,-6.346 -4.224,-10.198 0,-3.852 1.499,-7.474 4.224,-10.198 z" /></g><g
           transform="translate(676.4104,168.8107)"
           id="g3970"><path
             id="path3972"
             style="fill:#4d4d4d;fill-opacity:1;fill-rule:nonzero;stroke:none"
             d="m 0,0 h -64.601 c -2.311,0 -4.185,-1.874 -4.185,-4.185 0,-2.312 1.874,-4.185 4.185,-4.185 H 0 c 2.311,0 4.185,1.873 4.185,4.185 C 4.185,-1.874 2.311,0 0,0" /></g><g
           transform="translate(676.4104,191.132)"
           id="g3974"><path
             id="path3976"
             style="fill:#4d4d4d;fill-opacity:1;fill-rule:nonzero;stroke:none"
             d="m 0,0 h -41.349 c -2.312,0 -4.186,-1.874 -4.186,-4.185 0,-2.312 1.874,-4.185 4.186,-4.185 H 0 c 2.311,0 4.185,1.873 4.185,4.185 C 4.185,-1.874 2.311,0 0,0" /></g><g
           transform="translate(676.4104,213.4533)"
           id="g3978"><path
             id="path3980"
             style="fill:#4d4d4d;fill-opacity:1;fill-rule:nonzero;stroke:none"
             d="m 0,0 h -18.098 c -2.311,0 -4.185,-1.874 -4.185,-4.185 0,-2.312 1.874,-4.185 4.185,-4.185 H 0 c 2.311,0 4.185,1.873 4.185,4.185 C 4.185,-1.874 2.311,0 0,0" /></g><g
           transform="translate(892.7093,170.3154)"
           id="g3982"><path
             id="path3984"
             style="fill:#4d4d4d;fill-opacity:1;fill-rule:nonzero;stroke:none"
             d="m 0,0 -56.067,56.067 c -2.25,2.25 -2.25,5.911 0,8.161 l 71.592,71.592 c 2.251,2.25 5.911,2.25 8.162,0 l 5.956,-5.956 -58.212,-58.212 c -1.045,-1.045 -1.462,-2.565 -1.095,-3.998 2.544,-9.922 7.726,-19.005 14.986,-26.265 7.26,-7.261 16.343,-12.443 26.266,-14.986 1.432,-0.367 2.952,0.049 3.998,1.095 l 58.212,58.211 5.955,-5.956 c 2.25,-2.25 2.25,-5.911 0,-8.161 L 8.162,0 C 5.911,-2.249 2.25,-2.25 0,0 M 67.879,91.628 52.877,76.627 20.56,108.944 35.561,123.945 Z M -5.619,82.764 26.698,50.447 11.401,35.15 c -7.586,2.342 -14.517,6.514 -20.16,12.157 -5.643,5.644 -9.816,12.575 -12.157,20.161 z M 32.617,56.366 0.3,88.683 14.641,103.025 46.959,70.708 Z m 53.055,9.307 c 5.513,5.514 5.514,14.486 0,19.999 l -19.673,19.673 c 2.22,4.665 1.415,10.423 -2.441,14.279 -3.857,3.857 -9.614,4.662 -14.279,2.442 l -19.674,19.673 c -5.513,5.514 -14.485,5.513 -19.998,0 L -61.985,70.147 c -5.514,-5.514 -5.514,-14.486 -10e-4,-19.999 L -5.919,-5.919 c 5.513,-5.513 14.485,-5.514 19.999,0 z" /></g><g
           transform="translate(947.3891,337.3298)"
           id="g3986"><path
             id="path3988"
             style="fill:#4d4d4d;fill-opacity:1;fill-rule:nonzero;stroke:none"
             d="m 0,0 c 31.026,-0.001 56.268,-25.242 56.268,-56.268 0,-1.156 0.468,-2.202 1.226,-2.96 0.757,-0.757 1.804,-1.226 2.96,-1.226 2.311,0 4.185,1.874 4.184,4.185 0,17.24 -6.73,33.466 -18.952,45.687 C 33.465,1.64 17.24,8.37 -0.001,8.37 -2.312,8.371 -4.186,6.497 -4.185,4.185 -4.185,1.873 -2.312,0 0,0" /></g><g
           transform="translate(947.3885,319.6588)"
           id="g3990"><path
             id="path3992"
             style="fill:#4d4d4d;fill-opacity:1;fill-rule:nonzero;stroke:none"
             d="m 0,0 c -2.311,0 -4.185,-1.874 -4.185,-4.185 0,-2.312 1.874,-4.185 4.186,-4.185 16.665,-0.001 30.225,-13.561 30.227,-30.227 -0.001,-1.156 0.468,-2.202 1.225,-2.96 0.758,-0.757 1.804,-1.226 2.96,-1.226 2.311,0 4.185,1.874 4.184,4.186 C 38.598,-17.313 21.283,0.001 0,0" /></g><g
           transform="translate(257.1953,168.8107)"
           id="g3994"><path
             id="path3996"
             style="fill:#4d4d4d;fill-opacity:1;fill-rule:nonzero;stroke:none"
             d="m 0,0 c -46.411,0 -84.17,37.758 -84.17,84.17 0,46.412 37.759,84.17 84.17,84.17 46.412,0 84.17,-37.758 84.17,-84.17 C 84.17,37.758 46.412,0 0,0 m 0,176.711 c -51.027,0 -92.54,-41.514 -92.54,-92.541 0,-51.027 41.513,-92.54 92.54,-92.54 51.027,0 92.541,41.513 92.541,92.54 0,51.027 -41.514,92.541 -92.541,92.541" /></g><g
           transform="translate(257.1953,201.5198)"
           id="g3998"><path
             id="path4000"
             style="fill:#4d4d4d;fill-opacity:1;fill-rule:nonzero;stroke:none"
             d="m 0,0 c -4.615,0 -8.37,-3.755 -8.37,-8.37 0,-4.616 3.755,-8.371 8.37,-8.371 4.615,0 8.371,3.755 8.371,8.371 C 8.371,-3.755 4.615,0 0,0" /></g><g
           transform="translate(290.4321,288.7279)"
           id="g4002"><path
             id="path4004"
             style="fill:#4d4d4d;fill-opacity:1;fill-rule:nonzero;stroke:none"
             d="m 0,0 h -66.474 c -2.312,0 -4.185,-1.874 -4.185,-4.185 v -9.774 c 0,-2.312 1.873,-4.185 4.185,-4.185 2.311,0 4.185,1.873 4.185,4.185 v 5.588 h 24.867 v -5.588 c 0,-2.312 1.874,-4.185 4.185,-4.185 2.312,0 4.185,1.873 4.185,4.185 v 5.588 h 24.867 v -5.588 c 0,-2.312 1.874,-4.185 4.185,-4.185 2.311,0 4.185,1.873 4.185,4.185 v 9.774 C 4.185,-1.874 2.311,0 0,0" /></g><g
           transform="translate(308.9029,212.714)"
           id="g4006"><path
             id="path4008"
             style="fill:#4d4d4d;fill-opacity:1;fill-rule:nonzero;stroke:none"
             d="m 0,0 h -17.721 l -8.541,12.94 c -0.774,1.173 -2.087,1.88 -3.493,1.88 h -11.777 l 10.183,25.252 c 0.864,2.144 -0.173,4.582 -2.317,5.447 -2.144,0.862 -4.582,-0.172 -5.446,-2.317 L -50.556,14.82 h -23.105 c -1.406,0 -2.718,-0.707 -3.493,-1.88 L -85.694,0 h -17.722 c -8.952,11.479 -13.861,25.7 -13.861,40.268 0,36.155 29.414,65.569 65.569,65.569 36.155,0 65.569,-29.414 65.569,-65.569 C 13.861,25.701 8.953,11.479 0,0 m -51.708,114.207 c -40.77,0 -73.939,-33.169 -73.939,-73.939 0,-17.161 6.039,-33.897 17.005,-47.124 0.795,-0.96 1.976,-1.514 3.222,-1.514 h 21.978 c 1.407,0 2.719,0.706 3.494,1.88 l 8.54,12.94 h 39.401 l 8.54,-12.94 c 0.775,-1.174 2.087,-1.88 3.493,-1.88 H 2.004 c 1.246,0 2.427,0.554 3.223,1.514 10.965,13.227 17.005,29.963 17.005,47.124 0,40.77 -33.169,73.939 -73.94,73.939" /></g><g
           transform="translate(327.9509,569.938)"
           id="g4010"><path
             id="path4012"
             style="fill:#4d4d4d;fill-opacity:1;fill-rule:nonzero;stroke:none"
             d="m 0,0 c -8.378,0 -15.194,6.816 -15.194,15.194 0,8.378 6.816,15.194 15.194,15.194 8.378,0 15.194,-6.816 15.194,-15.194 C 15.194,6.816 8.378,0 0,0 m 5.589,-67.194 h -36.678 l -6.474,20.853 c -0.543,1.751 -2.164,2.945 -3.997,2.945 h -95.933 v 10.824 c 3.07,-0.822 6.293,-1.268 9.619,-1.268 20.514,0 37.203,16.689 37.203,37.202 0,2.621 -0.276,5.178 -0.794,7.647 h 68.28 C -21.204,0.006 -11.565,-8.37 0,-8.37 c 1.926,0 3.797,0.237 5.589,0.675 z m -61.008,4.115 c 0,-2.269 -1.845,-4.115 -4.114,-4.115 h -73.846 c -2.268,0 -4.114,1.846 -4.114,4.115 v 11.312 h 82.074 z M -156.705,3.362 c 0,15.898 12.934,28.832 28.831,28.832 15.898,0 28.832,-12.934 28.832,-28.832 0,-15.898 -12.934,-28.831 -28.832,-28.831 -15.897,0 -28.831,12.933 -28.831,28.831 m 19.212,48.065 h 53.943 v -8.73 c 0,-2.311 1.874,-4.185 4.185,-4.185 2.312,0 4.185,1.874 4.185,4.185 v 8.73 h 10.231 v -8.73 c 0,-2.311 1.874,-4.185 4.185,-4.185 2.312,0 4.186,1.874 4.186,4.185 v 8.73 h 10.23 v -8.73 c 0,-2.311 1.874,-4.185 4.185,-4.185 2.312,0 4.186,1.874 4.186,4.185 v 8.73 H 5.589 V 38.083 C 3.797,38.521 1.926,38.758 0,38.758 c -11.565,0 -21.203,-8.376 -23.185,-19.379 h -71.116 c -5.997,12.519 -18.791,21.186 -33.573,21.186 -3.326,0 -6.549,-0.446 -9.619,-1.268 z m 0,18.942 18.951,21.477 h 18.572 l 5.781,-8.49 c 0.779,-1.145 2.074,-1.83 3.459,-1.83 h 49.556 c 1.385,0 2.68,0.685 3.459,1.83 l 5.781,8.49 h 18.572 L 5.589,70.369 V 59.798 H -137.493 Z M 23.565,15.194 c 0,7.772 -3.785,14.675 -9.605,18.97 v 37.787 c 0,1.02 -0.373,2.005 -1.047,2.77 L -8.335,98.8 c -0.794,0.9 -1.937,1.416 -3.138,1.416 h -22.675 c -1.385,0 -2.68,-0.685 -3.46,-1.83 l -5.78,-8.489 h -45.128 l -5.78,8.489 c -0.78,1.145 -2.075,1.83 -3.46,1.83 h -22.675 c -1.201,0 -2.344,-0.516 -3.138,-1.416 l -21.247,-24.079 c -0.675,-0.765 -1.047,-1.75 -1.047,-2.77 v -36.04 c -11.446,-6.351 -19.213,-18.558 -19.213,-32.549 0,-13.991 7.767,-26.198 19.213,-32.549 v -33.892 c 0,-6.885 5.6,-12.485 12.484,-12.485 h 73.846 c 6.884,0 12.485,5.6 12.485,12.485 v 11.312 h 2.405 l 6.473,-20.853 c 0.544,-1.751 2.164,-2.944 3.998,-2.944 H 9.775 c 2.311,0 4.185,1.874 4.185,4.185 v 67.603 c 5.82,4.295 9.605,11.198 9.605,18.97" /></g><g
           transform="translate(266.2475,559.8918)"
           id="g4014"><path
             id="path4016"
             style="fill:#4d4d4d;fill-opacity:1;fill-rule:nonzero;stroke:none"
             d="m 0,0 h 15.261 c 2.312,0 4.185,1.874 4.185,4.185 0,2.312 -1.873,4.186 -4.185,4.186 L 0,8.371 C -2.311,8.371 -4.185,6.497 -4.185,4.185 -4.185,1.874 -2.311,0 0,0" /></g><g
           transform="translate(303.4497,549.2252)"
           id="g4018"><path
             id="path4020"
             style="fill:#4d4d4d;fill-opacity:1;fill-rule:nonzero;stroke:none"
             d="m 0,0 h -37.202 c -2.312,0 -4.186,-1.874 -4.186,-4.185 0,-2.312 1.874,-4.186 4.186,-4.186 H 0 c 2.311,0 4.185,1.874 4.185,4.186 C 4.185,-1.874 2.311,0 0,0" /></g><g
           transform="translate(206.1227,573.3004)"
           id="g4022"><path
             id="path4024"
             style="fill:#4d4d4d;fill-opacity:1;fill-rule:nonzero;stroke:none"
             d="m 0,0 c 0,3.333 -2.712,6.045 -6.045,6.045 -3.334,0 -6.046,-2.712 -6.046,-6.045 0,-3.333 2.712,-6.045 6.046,-6.045 C -2.712,-6.045 0,-3.333 0,0" /></g><g
           transform="translate(211.0636,880.151)"
           id="g4026"><path
             id="path4028"
             style="fill:#4d4d4d;fill-opacity:1;fill-rule:nonzero;stroke:none"
             d="m 0,0 c -2.312,0 -4.185,-1.874 -4.185,-4.185 v -20.061 c 0,-2.312 1.873,-4.186 4.185,-4.186 2.311,0 4.185,1.874 4.185,4.186 V -4.185 C 4.185,-1.874 2.311,0 0,0" /></g><g
           transform="translate(234.1292,880.151)"
           id="g4030"><path
             id="path4032"
             style="fill:#4d4d4d;fill-opacity:1;fill-rule:nonzero;stroke:none"
             d="m 0,0 c -2.311,0 -4.185,-1.874 -4.185,-4.185 v -20.061 c 0,-2.312 1.874,-4.186 4.185,-4.186 2.312,0 4.185,1.874 4.185,4.186 V -4.185 C 4.185,-1.874 2.312,0 0,0" /></g><g
           transform="translate(257.1953,880.151)"
           id="g4034"><path
             id="path4036"
             style="fill:#4d4d4d;fill-opacity:1;fill-rule:nonzero;stroke:none"
             d="m 0,0 c -2.311,0 -4.185,-1.874 -4.185,-4.185 v -20.061 c 0,-2.312 1.874,-4.186 4.185,-4.186 2.312,0 4.185,1.874 4.185,4.186 V -4.185 C 4.185,-1.874 2.312,0 0,0" /></g><g
           transform="translate(280.261,851.7194)"
           id="g4038"><path
             id="path4040"
             style="fill:#4d4d4d;fill-opacity:1;fill-rule:nonzero;stroke:none"
             d="m 0,0 c 2.312,0 4.185,1.874 4.185,4.185 v 20.061 c 0,2.312 -1.873,4.186 -4.185,4.186 -2.311,0 -4.185,-1.874 -4.185,-4.186 V 4.185 C -4.185,1.874 -2.311,0 0,0" /></g><g
           transform="translate(303.3266,851.7194)"
           id="g4042"><path
             id="path4044"
             style="fill:#4d4d4d;fill-opacity:1;fill-rule:nonzero;stroke:none"
             d="m 0,0 c 2.311,0 4.185,1.874 4.185,4.185 v 20.061 c 0,2.312 -1.874,4.186 -4.185,4.186 -2.311,0 -4.185,-1.874 -4.185,-4.186 V 4.185 C -4.185,1.874 -2.311,0 0,0" /></g><g
           transform="translate(346.0197,907.2379)"
           id="g4046"><path
             id="path4048"
             style="fill:#4d4d4d;fill-opacity:1;fill-rule:nonzero;stroke:none"
             d="m 0,0 h -70.489 l 4.935,16.958 H 0 Z m -10.449,-61.536 c 0,-7.002 -5.697,-12.699 -12.7,-12.699 H -154.5 c -7.003,0 -12.699,5.697 -12.699,12.699 v 53.165 h 62.474 l 1.409,-4.84 c 0.52,-1.787 2.157,-3.016 4.018,-3.016 h 20.946 c 1.861,0 3.499,1.229 4.019,3.016 l 1.409,4.84 h 62.475 z m -167.2,78.494 h 65.554 L -107.161,0 h -70.488 z m 96.157,-24.814 h -14.665 l -7.22,24.814 h 29.106 z m -85.707,38.876 c 0,7.003 5.696,12.7 12.699,12.7 h 131.351 c 7.003,0 12.7,-5.697 12.7,-12.7 v -5.692 h -156.75 z m 40.316,41.085 c 0,7.002 5.697,12.7 12.7,12.7 h 50.718 c 7.002,0 12.699,-5.698 12.699,-12.7 V 52.09 h -76.117 z M 4.185,25.328 h -6.264 v 5.692 c 0,11.618 -9.452,21.07 -21.07,21.07 h -19.246 v 20.015 c 0,11.618 -9.452,21.07 -21.07,21.07 h -50.718 c -11.619,0 -21.071,-9.452 -21.071,-21.07 V 52.09 H -154.5 c -11.618,0 -21.07,-9.452 -21.07,-21.07 v -5.692 h -6.264 c -2.312,0 -4.186,-1.874 -4.186,-4.185 V -4.185 c 0,-2.312 1.874,-4.186 4.186,-4.186 h 6.264 v -53.165 c 0,-11.618 9.452,-21.07 21.07,-21.07 h 131.351 c 11.618,0 21.07,9.452 21.07,21.07 v 53.165 h 6.264 c 2.312,0 4.186,1.874 4.186,4.186 v 25.328 c 0,2.311 -1.874,4.185 -4.186,4.185" /></g><g
           transform="translate(341.3654,1228.0675)"
           id="g4050"><path
             id="path4052"
             style="fill:#4d4d4d;fill-opacity:1;fill-rule:nonzero;stroke:none"
             d="m 0,0 h -36.8 c 1.334,4.473 2.061,9.205 2.061,14.106 0,4.901 -0.727,9.633 -2.061,14.106 h 13.856 C -10.293,28.212 0,17.919 0,5.267 Z m -30.903,-51.661 -3.724,-3.724 -26.023,26.022 c 8.422,4.576 15.373,11.527 19.948,19.949 l 9.799,-9.799 c 8.946,-8.946 8.946,-23.502 0,-32.448 m -62.106,-18.403 h -5.267 v 36.8 c 4.473,-1.334 9.205,-2.062 14.106,-2.062 4.901,0 9.633,0.727 14.106,2.062 v -13.855 c 0,-12.652 -10.293,-22.945 -22.945,-22.945 m -24.48,30.903 c -4.333,-4.334 -10.095,-6.721 -16.224,-6.721 -6.129,0 -11.891,2.387 -16.224,6.721 l -3.725,3.724 26.023,26.023 c 4.576,-8.422 11.527,-15.373 19.949,-19.949 z M -145.396,0 c -12.651,0 -22.944,10.293 -22.944,22.944 v 5.268 h 36.8 c -1.335,-4.473 -2.062,-9.205 -2.062,-14.106 0,-4.901 0.727,-9.633 2.062,-14.106 z m 7.959,79.873 3.724,3.724 26.023,-26.023 c -8.422,-4.575 -15.373,-11.526 -19.949,-19.948 l -9.798,9.799 c -8.946,8.945 -8.946,23.502 0,32.448 m 62.106,18.403 h 5.267 v -36.8 c -4.473,1.334 -9.205,2.062 -14.106,2.062 -4.901,0 -9.633,-0.728 -14.106,-2.062 v 13.855 c 0,12.652 10.293,22.945 22.945,22.945 M -84.17,-26.955 c -22.641,0 -41.061,18.42 -41.061,41.061 0,22.641 18.42,41.061 41.061,41.061 22.641,0 41.061,-18.42 41.061,-41.061 0,-22.641 -18.42,-41.061 -41.061,-41.061 m 33.318,94.328 c 4.334,4.334 10.096,6.72 16.225,6.72 6.129,0 11.891,-2.386 16.224,-6.72 l 3.725,-3.724 -26.024,-26.023 c -4.575,8.422 -11.526,15.373 -19.948,19.948 z m 27.908,-30.791 h -6.963 L -5.8,60.689 c 1.634,1.635 1.634,4.285 0,5.919 l -6.684,6.684 c -5.915,5.915 -13.779,9.172 -22.143,9.172 -8.365,0 -16.229,-3.257 -22.144,-9.172 l -4.923,-4.923 v 34.092 c 0,2.312 -1.874,4.186 -4.185,4.186 h -9.452 c -17.268,0 -31.316,-14.048 -31.316,-31.316 v -6.962 l -24.107,24.107 c -0.785,0.785 -1.849,1.226 -2.959,1.226 -1.111,0 -2.175,-0.441 -2.96,-1.226 l -6.683,-6.684 c -12.21,-12.21 -12.21,-32.077 0,-44.286 l 4.923,-4.924 h -34.092 c -2.312,0 -4.186,-1.873 -4.186,-4.185 v -9.453 c 0,-17.267 14.049,-31.314 31.315,-31.314 h 6.963 l -24.107,-24.108 c -1.634,-1.634 -1.634,-4.284 0,-5.918 l 6.684,-6.684 c 5.915,-5.915 13.779,-9.173 22.143,-9.173 8.364,0 16.229,3.258 22.143,9.173 l 4.923,4.923 v -34.092 c 0,-2.312 1.874,-4.185 4.186,-4.185 h 9.452 c 17.267,0 31.315,14.048 31.315,31.315 v 6.962 l 24.107,-24.107 c 0.817,-0.817 1.888,-1.225 2.96,-1.225 1.071,0 2.142,0.408 2.959,1.225 l 6.684,6.684 c 12.21,12.21 12.21,32.077 0,44.286 l -4.923,4.924 H 4.185 c 2.312,0 4.186,1.873 4.186,4.185 v 9.452 c 0,17.267 -14.049,31.315 -31.315,31.315" /></g><g
           transform="translate(257.1953,1230.8383)"
           id="g4054"><path
             id="path4056"
             style="fill:#4d4d4d;fill-opacity:1;fill-rule:nonzero;stroke:none"
             d="m 0,0 c -6.251,0 -11.335,5.085 -11.335,11.335 0,6.251 5.084,11.335 11.335,11.335 6.251,0 11.336,-5.084 11.336,-11.335 C 11.336,5.085 6.251,0 0,0 m 0,31.041 c -10.866,0 -19.706,-8.84 -19.706,-19.706 0,-10.866 8.84,-19.706 19.706,-19.706 10.866,0 19.706,8.84 19.706,19.706 0,10.866 -8.84,19.706 -19.706,19.706" /></g></g></g></g></svg>