<svg xmlns="http://www.w3.org/2000/svg" viewBox="0 0 100 100"><defs><style>.cls-1{fill:#02acbe;}.cls-2,.cls-3{fill:none;stroke:#02acbe;stroke-miterlimit:10;stroke-width:4px;}.cls-3{stroke-linecap:round;}</style></defs><g id="Extensible"><path class="cls-1" d="M70,24a6,6,0,0,1,6,6V70a6,6,0,0,1-6,6H30a6,6,0,0,1-6-6V30a6,6,0,0,1,6-6H70m0-4H30A10,10,0,0,0,20,30V70A10,10,0,0,0,30,80H70A10,10,0,0,0,80,70V30A10,10,0,0,0,70,20Z"/><line class="cls-2" x1="35" y1="48" x2="35" y2="72.02"/><line class="cls-2" x1="35" y1="27.99" x2="35" y2="40"/><line class="cls-2" x1="50" y1="68" x2="50" y2="72.02"/><line class="cls-2" x1="50" y1="28.01" x2="50" y2="60"/><line class="cls-2" x1="65" y1="28.01" x2="65" y2="48"/><line class="cls-2" x1="65" y1="56" x2="65" y2="72"/><circle class="cls-3" cx="35" cy="44" r="4"/><circle class="cls-3" cx="50" cy="64" r="4"/><circle class="cls-3" cx="65" cy="52" r="4"/></g></svg>