<svg width="128" height="128" viewBox="0 0 128 128" fill="none" xmlns="http://www.w3.org/2000/svg">
<path fill-rule="evenodd" clip-rule="evenodd" d="M37.2447 40.1566H88.4896C90.0684 40.1566 91.3428 38.8765 91.3428 37.2908C91.3428 35.705 90.0684 34.425 88.4896 34.425H37.2447C35.6659 34.425 34.3914 35.705 34.3914 37.2908C34.3914 38.8765 35.6659 40.1566 37.2447 40.1566Z" fill="#D4D30A"/>
<path fill-rule="evenodd" clip-rule="evenodd" d="M48.6388 28.7316H77.0765C78.6553 28.7316 79.9297 27.4515 79.9297 25.8658C79.9297 24.2801 78.6553 23 77.0765 23H48.6388C47.06 23 45.7855 24.2801 45.7855 25.8658C45.7855 27.4515 47.06 28.7316 48.6388 28.7316Z" fill="#D4D30A"/>
<path d="M38.0816 105C31.1767 105 25.2229 99.6887 24.5381 92.8872L21 59.3765V58.383C21.1902 51.3141 26.8587 45.8882 33.8968 45.8882H94.6717C98.0385 46.2512 101.063 47.8942 103.193 50.5308C105.305 53.1482 106.275 56.4343 105.933 59.7586L102.547 92.8681C101.862 99.6123 96.0793 104.828 89.1173 104.981H38.0816V105Z" fill="#D4D30A"/>
</svg>
