<?xml version="1.0" encoding="UTF-8" standalone="no"?>
<svg
   xmlns:dc="http://purl.org/dc/elements/1.1/"
   xmlns:cc="http://creativecommons.org/ns#"
   xmlns:rdf="http://www.w3.org/1999/02/22-rdf-syntax-ns#"
   xmlns:svg="http://www.w3.org/2000/svg"
   xmlns="http://www.w3.org/2000/svg"
   xmlns:sodipodi="http://sodipodi.sourceforge.net/DTD/sodipodi-0.dtd"
   xmlns:inkscape="http://www.inkscape.org/namespaces/inkscape"
   id="Layer_1"
   data-name="Layer 1"
   viewBox="0 0 217.48001 48.729999"
   version="1.1"
   sodipodi:docname="logo.svg"
   width="217.48"
   height="48.73"
   inkscape:version="0.92.5 (2060ec1f9f, 2020-04-08)">
  <metadata
     id="metadata846">
    <rdf:RDF>
      <cc:Work
         rdf:about="">
        <dc:format>image/svg+xml</dc:format>
        <dc:type
           rdf:resource="http://purl.org/dc/dcmitype/StillImage" />
      </cc:Work>
    </rdf:RDF>
  </metadata>
  <sodipodi:namedview
     pagecolor="#ffffff"
     bordercolor="#666666"
     borderopacity="1"
     objecttolerance="10"
     gridtolerance="10"
     guidetolerance="10"
     inkscape:pageopacity="0"
     inkscape:pageshadow="2"
     inkscape:window-width="2560"
     inkscape:window-height="1376"
     id="namedview844"
     showgrid="false"
     inkscape:zoom="2.0835446"
     inkscape:cx="-73.79032"
     inkscape:cy="32.392833"
     inkscape:window-x="0"
     inkscape:window-y="27"
     inkscape:window-maximized="1"
     inkscape:current-layer="Layer_1" />
  <defs
     id="defs817">
    <style
       id="style815">.cls-1{fill:#02acbe;}</style>
  </defs>
  <path
     class="cls-1"
     d="m -75.9,-25.35 a 49.72,49.72 0 1 0 49.71,49.72 49.77,49.77 0 0 0 -49.71,-49.72 z m 38.08,74.08 -8.09,-13.46 a 31.79,31.79 0 0 0 1.92,-10.9 0.76,0.76 0 0 0 0,-0.15 l 12.77,7.09 a 45,45 0 0 1 -6.6,17.42 z m -38.08,3 A 27.42,27.42 0 1 1 -48.49,24.37 27.45,27.45 0 0 1 -75.9,51.78 Z m -24.37,10.72 13.46,-8.09 a 31.85,31.85 0 0 0 10.91,1.92 h 0.14 l -7.08,12.77 a 45.09,45.09 0 0 1 -17.43,-6.6 z m -20.85,-38.08 c 0,-0.7 0,-1.38 0,-2.07 l 13.8,7.62 a 31.87,31.87 0 0 0 3.87,10.53 l -14.62,0.25 a 45,45 0 0 1 -3.05,-16.33 z m 7.14,-24.37 8.08,13.46 a 31.85,31.85 0 0 0 -1.92,10.91 c 0,0 0,0.09 0,0.14 l -12.8,-7.08 A 45,45 0 0 1 -113.98,0 Z M -51.54,-13.71 -65,-5.63 a 31.79,31.79 0 0 0 -10.9,-1.92 h -0.15 l 7.09,-12.8 a 44.9,44.9 0 0 1 17.42,6.64 z m 7,32.52 A 31.3,31.3 0 0 0 -48.41,8.29 l 14.62,-0.26 a 45,45 0 0 1 3.06,16.34 c 0,0.69 0,1.38 0,2.06 z m 8.73,-15.24 -15.73,0.27 a 32.27,32.27 0 0 0 -8.55,-7.19 l 12.52,-7.5 a 45.6,45.6 0 0 1 11.81,14.42 z m -38.03,-24.37 -7.62,13.75 a 31.74,31.74 0 0 0 -10.52,3.87 l -0.26,-14.62 a 45,45 0 0 1 16.34,-3 c 0.69,-0.05 1.38,-0.03 2.06,0 z m -22.86,5 0.27,15.73 a 32.27,32.27 0 0 0 -7.19,8.62 l -7.5,-12.51 a 45.49,45.49 0 0 1 14.42,-11.82 z m -19.35,60.96 15.73,-0.27 a 32.09,32.09 0 0 0 8.6,7.17 l -12.51,7.52 a 45.49,45.49 0 0 1 -11.82,-14.42 z m 38.08,24.38 7.62,-13.76 a 31.44,31.44 0 0 0 10.53,-3.87 l 0.25,14.62 a 45,45 0 0 1 -16.33,3.06 c -0.72,0 -1.38,-0.02 -2.07,-0.05 z m 22.86,-5 -0.27,-15.73 a 31.94,31.94 0 0 0 7.17,-8.6 l 7.52,12.52 a 45.6,45.6 0 0 1 -14.42,11.78 z"
     id="path819"
     inkscape:connector-curvature="0"
     style="fill:#02acbe" />
  <path
     class="cls-1"
     d="m -75.9,14.56 a 9.81,9.81 0 1 0 9.8,9.81 9.82,9.82 0 0 0 -9.8,-9.81 z m 0,15.12 a 5.31,5.31 0 1 1 5.28,-5.31 5.32,5.32 0 0 1 -5.28,5.28 z"
     id="path821"
     inkscape:connector-curvature="0"
     style="fill:#02acbe" />
  <path
     class="cls-1"
     d="m -64.3,6.79 a 2.25,2.25 0 0 0 -3.18,3.18 l 6,6 a 2.22,2.22 0 0 0 1.59,0.66 2.25,2.25 0 0 0 1.59,-3.84 z"
     id="path823"
     inkscape:connector-curvature="0"
     style="fill:#02acbe" />
  <path
     class="cls-1"
     d="m -90.3,32.79 a 2.25,2.25 0 0 0 -3.18,3.18 l 6,6 a 2.25,2.25 0 1 0 3.18,-3.18 z"
     id="path825"
     inkscape:connector-curvature="0"
     style="fill:#02acbe" />
  <path
     class="cls-1"
     d="m -61.5,32.79 -6,6 a 2.25,2.25 0 0 0 3.18,3.18 l 6,-6 a 2.25,2.25 0 1 0 -3.18,-3.18 z"
     id="path827"
     inkscape:connector-curvature="0"
     style="fill:#02acbe" />
  <path
     class="cls-1"
     d="m -91.89,16.65 a 2.25,2.25 0 0 0 1.59,-0.66 l 6,-6 a 2.25,2.25 0 0 0 -3.18,-3.18 l -6,6 a 2.25,2.25 0 0 0 1.59,3.84 z"
     id="path829"
     inkscape:connector-curvature="0"
     style="fill:#02acbe" />
  <path
     class="cls-1"
     d="M 13.68,48.73 C 8.81,48.73 3.6,47.4 0,44.13 V 19.89 c 3.47,-3 8.54,-4.54 13.68,-4.54 4.87,0 10,1.41 13.68,4.54 v 7.41 h -5.67 v -4.54 a 13.71,13.71 0 0 0 -8,-2.06 c -3.14,0 -5.87,0.46 -8,2.06 v 18.49 c 2,1.54 4.74,2.07 8,2.14 3.07,0 5.81,-0.47 8,-2.14 v -4.53 h 5.69 v 7.41 c -3.55,3.07 -8.56,4.6 -13.7,4.6 z"
     id="path831"
     inkscape:connector-curvature="0"
     style="fill:#02acbe" />
  <path
     class="cls-1"
     d="M 44.71,48.06 V 0 h 5.67 v 48.06 z"
     id="path833"
     inkscape:connector-curvature="0"
     style="fill:#02acbe" />
  <path
     class="cls-1"
     d="m 82.55,48.73 c -4.87,0 -10.35,-1.33 -14,-4.6 V 16.02 h 5.67 v 25 a 13.89,13.89 0 0 0 8.35,2.4 c 3.14,0 6.21,-0.67 8.34,-2.4 v -25 h 5.68 v 28.11 c -3.49,3.07 -8.97,4.6 -14.04,4.6 z"
     id="path835"
     inkscape:connector-curvature="0"
     style="fill:#02acbe" />
  <path
     class="cls-1"
     d="M 127.13,48.4 A 12.69,12.69 0 0 1 116.45,42.99 V 21.16 h -4.94 v -5.14 h 4.94 V 5.34 h 5.67 v 10.68 h 7.68 v 5.14 h -7.68 v 19.63 a 6.47,6.47 0 0 0 5,2.27 h 3.34 v 5.34 z"
     id="path837"
     inkscape:connector-curvature="0"
     style="fill:#02acbe" />
  <path
     class="cls-1"
     d="m 159.29,48.73 c -4.87,0 -10.08,-1.33 -13.68,-4.6 V 19.89 c 3.47,-3 8.54,-4.54 13.68,-4.54 4.88,0 10,1.41 13.69,4.54 v 7.41 h -5.68 v -4.54 a 13.69,13.69 0 0 0 -8,-2.06 c -3.13,0 -5.87,0.46 -8,2.06 v 18.49 c 2,1.54 4.74,2.07 8,2.14 3.07,0 5.81,-0.47 8,-2.14 v -4.53 h 5.68 v 7.41 c -3.54,3.07 -8.55,4.6 -13.69,4.6 z"
     id="path839"
     inkscape:connector-curvature="0"
     style="fill:#02acbe" />
  <path
     class="cls-1"
     d="m 211.81,48.06 v -25 c -2,-1.67 -5.07,-2.4 -8.34,-2.4 a 14.28,14.28 0 0 0 -8.34,2.4 v 25 h -5.68 V 0 h 5.68 v 17.36 a 19.39,19.39 0 0 1 9,-2 c 5.47,0 9.94,1.61 13.35,4.94 v 27.76 z"
     id="path841"
     inkscape:connector-curvature="0"
     style="fill:#02acbe" />
</svg>
