<svg id="Layer_1" data-name="Layer 1" xmlns="http://www.w3.org/2000/svg" viewBox="0 0 343.11 99.43"><defs><style>.cls-1{fill:#02acbe;}</style></defs><path class="cls-1" d="M49.72,0A49.72,49.72,0,1,0,99.43,49.72,49.77,49.77,0,0,0,49.72,0ZM87.8,74.08,79.71,60.62a31.79,31.79,0,0,0,1.92-10.9.76.76,0,0,0,0-.15L94.4,56.66A45,45,0,0,1,87.8,74.08Zm-38.08,3A27.42,27.42,0,1,1,77.13,49.72,27.45,27.45,0,0,1,49.72,77.13ZM25.35,87.8l13.46-8.09a31.85,31.85,0,0,0,10.91,1.92h.14L42.78,94.4A45.09,45.09,0,0,1,25.35,87.8ZM4.5,49.72c0-.7,0-1.38,0-2.07L18.3,55.27A31.87,31.87,0,0,0,22.17,65.8l-14.62.25A45,45,0,0,1,4.5,49.72Zm7.14-24.37,8.08,13.46A31.85,31.85,0,0,0,17.8,49.72s0,.09,0,.14L5,42.78A45,45,0,0,1,11.64,25.35ZM74.08,11.64,60.62,19.72a31.79,31.79,0,0,0-10.9-1.92h-.15L56.66,5A44.9,44.9,0,0,1,74.08,11.64Zm7,32.52a31.3,31.3,0,0,0-3.87-10.52l14.62-.26a45,45,0,0,1,3.06,16.34c0,.69,0,1.38,0,2.06Zm8.73-15.24-15.73.27A32.27,32.27,0,0,0,65.53,22L78.05,14.5A45.6,45.6,0,0,1,89.86,28.92ZM51.78,4.55,44.16,18.3a31.74,31.74,0,0,0-10.52,3.87L33.38,7.55a45,45,0,0,1,16.34-3C50.41,4.5,51.1,4.52,51.78,4.55Zm-22.86,5,.27,15.73A32.27,32.27,0,0,0,22,33.9L14.5,21.39A45.49,45.49,0,0,1,28.92,9.57ZM9.57,70.51l15.73-.27a32.09,32.09,0,0,0,8.6,7.17L21.39,84.93A45.49,45.49,0,0,1,9.57,70.51ZM47.65,94.89l7.62-13.76A31.44,31.44,0,0,0,65.8,77.26l.25,14.62a45,45,0,0,1-16.33,3.06C49,94.94,48.34,94.92,47.65,94.89Zm22.86-5-.27-15.73a31.94,31.94,0,0,0,7.17-8.6l7.52,12.52A45.6,45.6,0,0,1,70.51,89.86Z"/><path class="cls-1" d="M49.72,39.91a9.81,9.81,0,1,0,9.8,9.81A9.82,9.82,0,0,0,49.72,39.91Zm0,15.12A5.31,5.31,0,1,1,55,49.72,5.32,5.32,0,0,1,49.72,55Z"/><path class="cls-1" d="M61.32,32.14a2.25,2.25,0,0,0-3.18,3.18l6,6a2.22,2.22,0,0,0,1.59.66,2.25,2.25,0,0,0,1.59-3.84Z"/><path class="cls-1" d="M35.32,58.14a2.25,2.25,0,0,0-3.18,3.18l6,6a2.25,2.25,0,1,0,3.18-3.18Z"/><path class="cls-1" d="M64.12,58.14l-6,6a2.25,2.25,0,0,0,3.18,3.18l6-6a2.25,2.25,0,1,0-3.18-3.18Z"/><path class="cls-1" d="M33.73,42a2.25,2.25,0,0,0,1.59-.66l6-6a2.25,2.25,0,0,0-3.18-3.18l-6,6A2.25,2.25,0,0,0,33.73,42Z"/><path class="cls-1" d="M139.3,74.08c-4.87,0-10.08-1.33-13.68-4.6V45.24c3.47-3,8.54-4.54,13.68-4.54,4.87,0,10,1.41,13.68,4.54v7.41h-5.67V48.11a13.71,13.71,0,0,0-8-2.06c-3.14,0-5.87.46-8,2.06V66.6c2,1.54,4.74,2.07,8,2.14,3.07,0,5.81-.47,8-2.14V62.07H153v7.41C149.45,72.55,144.44,74.08,139.3,74.08Z"/><path class="cls-1" d="M170.33,73.41V25.35H176V73.41Z"/><path class="cls-1" d="M208.17,74.08c-4.87,0-10.35-1.33-14-4.6V41.37h5.67v25a13.89,13.89,0,0,0,8.35,2.4c3.14,0,6.21-.67,8.34-2.4v-25h5.68V69.48C218.72,72.55,213.24,74.08,208.17,74.08Z"/><path class="cls-1" d="M252.75,73.75a12.69,12.69,0,0,1-10.68-5.41V46.51h-4.94V41.37h4.94V30.69h5.67V41.37h7.68v5.14h-7.68V66.14a6.47,6.47,0,0,0,5,2.27h3.34v5.34Z"/><path class="cls-1" d="M284.91,74.08c-4.87,0-10.08-1.33-13.68-4.6V45.24c3.47-3,8.54-4.54,13.68-4.54,4.88,0,10,1.41,13.69,4.54v7.41h-5.68V48.11a13.69,13.69,0,0,0-8-2.06c-3.13,0-5.87.46-8,2.06V66.6c2,1.54,4.74,2.07,8,2.14,3.07,0,5.81-.47,8-2.14V62.07h5.68v7.41C295.06,72.55,290.05,74.08,284.91,74.08Z"/><path class="cls-1" d="M337.43,73.41v-25c-2-1.67-5.07-2.4-8.34-2.4a14.28,14.28,0,0,0-8.34,2.4v25h-5.68V25.35h5.68V42.71a19.39,19.39,0,0,1,9-2c5.47,0,9.94,1.61,13.35,4.94V73.41Z"/></svg>