<svg xmlns="http://www.w3.org/2000/svg" viewBox="0 0 280.59 270"><defs><style>.cls-1{fill:#4b98b7;}.cls-2{fill:#b9ffff;}.cls-3{fill:#6ebbda;}.cls-4{fill:#287594;}</style></defs><g id="Layer_2" data-name="Layer 2"><g id="Layer_1-2" data-name="Layer 1"><polygon class="cls-1" points="124.71 270 0 198 155.88 108 280.59 180 124.71 270"/><polygon class="cls-2" points="155.88 108 0 198 0 108 155.88 18 155.88 108"/><polygon class="cls-3" points="62.35 90 0 108 0 126 0 198 46.77 225 46.77 162 77.94 180 77.94 243 124.71 270 124.71 198 124.71 180 62.35 90"/><ellipse class="cls-4" cx="50.9" cy="132.75" rx="6.36" ry="11.02" transform="translate(-59.56 43.24) rotate(-30)"/><polygon class="cls-3" points="280.59 180 280.59 108 280.59 90 218.24 0 155.88 18 155.88 36 155.88 108 280.59 180"/><ellipse class="cls-4" cx="218.24" cy="27" rx="6.36" ry="11.02" transform="translate(15.74 112.74) rotate(-30)"/><polyline class="cls-4" points="73.19 105.64 212.51 17.6 223.85 36.48 85.74 123.75"/><polygon class="cls-2" points="280.59 180 124.71 270 124.71 180 280.59 90 280.59 180"/></g></g></svg>