<svg xmlns="http://www.w3.org/2000/svg" viewBox="0 0 323.94 323.94"><defs><style>.cls-1{fill:#02acbe;}</style></defs><g id="Layer_2" data-name="Layer 2"><g id="Layer_1-2" data-name="Layer 1"><path class="cls-1" d="M162,0C72.66,0,0,72.66,0,162s72.66,162,162,162,162-72.66,162-162S251.28,0,162,0ZM286,241.35l-26.35-43.86A103.57,103.57,0,0,0,265.94,162c0-.16,0-.31,0-.47l41.64,23.08A146.59,146.59,0,0,1,286,241.35ZM162,251.28A89.31,89.31,0,1,1,251.28,162,89.41,89.41,0,0,1,162,251.28ZM82.59,286l43.86-26.35A103.57,103.57,0,0,0,162,265.94l.47,0-23.08,41.63A146.42,146.42,0,0,1,82.59,286ZM14.65,162c0-2.26.06-4.5.16-6.73l44.81,24.84a103.18,103.18,0,0,0,12.6,34.27l-47.62.83A146.53,146.53,0,0,1,14.65,162ZM37.91,82.59l26.35,43.86A103.57,103.57,0,0,0,58,162c0,.16,0,.31,0,.47L16.38,139.36A146.59,146.59,0,0,1,37.91,82.59ZM241.35,37.91,197.49,64.26A103.57,103.57,0,0,0,162,58l-.47,0,23.08-41.63A146.42,146.42,0,0,1,241.35,37.91Zm23,106a103.18,103.18,0,0,0-12.6-34.27l47.62-.83a146.53,146.53,0,0,1,10,53.21c0,2.26-.06,4.5-.16,6.73Zm28.44-49.64-51.26.89a104.58,104.58,0,0,0-28-23.38l40.77-24.49A148.35,148.35,0,0,1,292.76,94.22ZM168.7,14.81,143.86,59.62a103.18,103.18,0,0,0-34.27,12.6l-.83-47.62a146.53,146.53,0,0,1,53.21-10C164.23,14.65,166.47,14.71,168.7,14.81ZM94.22,31.18l.89,51.26a104.58,104.58,0,0,0-23.38,28L47.24,69.67A148.35,148.35,0,0,1,94.22,31.18Zm-63,198.54,51.26-.89a104.58,104.58,0,0,0,28,23.38L69.67,276.7A148.35,148.35,0,0,1,31.18,229.72Zm124.06,79.41,24.84-44.81a103.18,103.18,0,0,0,34.27-12.6l.83,47.62a146.53,146.53,0,0,1-53.21,10C159.71,309.29,157.47,309.23,155.24,309.13Zm74.48-16.37-.89-51.26a104.58,104.58,0,0,0,23.38-28l24.49,40.77A148.35,148.35,0,0,1,229.72,292.76Z"/><path class="cls-1" d="M162,130A31.95,31.95,0,1,0,193.92,162,32,32,0,0,0,162,130Zm0,49.25a17.3,17.3,0,1,1,17.3-17.3A17.32,17.32,0,0,1,162,179.27Z"/><path class="cls-1" d="M199.79,104.7a7.33,7.33,0,0,0-10.36,10.36l19.45,19.45a7.33,7.33,0,0,0,10.36-10.36Z"/><path class="cls-1" d="M115.06,189.43a7.33,7.33,0,0,0-10.36,10.36l19.45,19.45a7.33,7.33,0,0,0,10.36-10.36Z"/><path class="cls-1" d="M208.88,189.43l-19.45,19.45a7.33,7.33,0,1,0,10.36,10.36l19.45-19.45a7.33,7.33,0,0,0-10.36-10.36Z"/><path class="cls-1" d="M109.88,136.66a7.32,7.32,0,0,0,5.18-2.15l19.45-19.45a7.33,7.33,0,0,0-10.36-10.36L104.7,124.15a7.33,7.33,0,0,0,5.18,12.51Z"/></g></g></svg>